<svg xmlns="http://www.w3.org/2000/svg" width="44.338" height="37.127" viewBox="0 0 44.338 37.127"><defs><style>.a{fill:#fff;}.b{fill:#009ddc;}</style></defs><rect class="a" width="36.991" height="37.127" transform="translate(7.122)"/><path class="b" d="M5.167,294.687a2.344,2.344,0,0,1-2.376,2.375,2.377,2.377,0,1,1,0-4.755,2.342,2.342,0,0,1,2.376,2.379m.423,0a2.787,2.787,0,1,0-.822,1.972A2.8,2.8,0,0,0,5.59,294.687Zm-2.149-.573c0-.33-.224-.357-.388-.357h-.78v.728H3c.239,0,.446-.057.446-.37ZM4,295.961H3.493a2.976,2.976,0,0,1-.077-.685c0-.189-.031-.383-.385-.383H2.273v1.067H1.818v-2.61H3.03c.418,0,.88.147.88.728a.659.659,0,0,1-.283.588c.119.067.22.179.235.473l.018.452c.006.131.02.16.126.219Z" transform="translate(0.01 -261.999)"/><path class="b" d="M154.194,209.35h-2.559v-.862h2.277v-.9h-2.274v-.785h2.6l1.14,1.266-1.187,1.274m2.528-1.26,1.595-1.712v3.485Zm3.979-.183h-1.347V206.81h1.356c.375,0,.63.155.63.532s-.246.565-.64.565Zm5.065-.217a.983.983,0,0,1-.512.088h-1.266v-.969h1.287a1.138,1.138,0,0,1,.494.073.428.428,0,0,1,.213.393.463.463,0,0,1-.217.419ZM160.71,205.9h-3.323l-1.33,1.427-1.271-1.424H150.6v4.353h4.121l1.33-1.433,1.279,1.433h2.025V208.8h1.293c.908,0,1.808-.254,1.808-1.458s-.926-1.438-1.747-1.438Zm5.888.214a2.429,2.429,0,0,0-1.252-.211h-2.4v4.353h1.04v-1.583h1.118c.378,0,.606.033.755.19a1.286,1.286,0,0,1,.169.845v.549h1.047v-.868a1.238,1.238,0,0,0-.171-.788,1.145,1.145,0,0,0-.512-.372,1.218,1.218,0,0,0,.741-1.154A1.011,1.011,0,0,0,166.6,206.115Zm4.584,3.237h-2.434v-.862h2.375v-.9h-2.375v-.785h2.434V205.9h-3.474v4.353h3.474Zm3.965-1.39a1.631,1.631,0,0,0-1.188-.35l-.558-.014a1.3,1.3,0,0,1-.4-.05.332.332,0,0,1-.228-.323.341.341,0,0,1,.154-.312.706.706,0,0,1,.417-.075h1.908V205.9h-2.085c-1.093,0-1.49.668-1.49,1.293,0,1.383,1.221,1.33,2.192,1.35a.552.552,0,0,1,.362.1.359.359,0,0,1,.128.287.387.387,0,0,1-.123.286.608.608,0,0,1-.418.107H171.8v.931h2.026c1.053,0,1.637-.447,1.637-1.372A1.215,1.215,0,0,0,175.147,207.962Zm4.377.921c0,.921-.58,1.372-1.637,1.372H175.88v-.931h2a.608.608,0,0,0,.419-.107.384.384,0,0,0,.123-.286.358.358,0,0,0-.127-.287.551.551,0,0,0-.362-.1c-.971-.028-2.193.033-2.193-1.35a1.3,1.3,0,0,1,1.49-1.293H179.3v.933h-1.9a.679.679,0,0,0-.416.075.34.34,0,0,0-.151.312.33.33,0,0,0,.227.323,1.3,1.3,0,0,0,.4.05l.559.014a1.623,1.623,0,0,1,1.188.35,1.218,1.218,0,0,1,.313.928Z" transform="translate(-135.186 -184.828)"/><path class="b" d="M71.576,135.259l.708-1.732.71,1.732H71.576m17.091-.687a.985.985,0,0,1-.512.088H86.9v-.968h1.281a1.1,1.1,0,0,1,.5.075.424.424,0,0,1,.213.392.462.462,0,0,1-.218.41Zm9,.687-.71-1.732-.708,1.732Zm-16.784-2.475H79.153L77.9,135.738l-1.355-2.954h-1.7v4.121l-1.762-4.124H71.533l-1.863,4.356H70.8l.4-.974h2.165l.4.974h2.116v-3.415l1.513,3.415h.913l1.508-3.413v3.409h1.066Zm4.248,3.449H82.7v-.863h2.375v-.9H82.7v-.784h2.433v-.908H81.659v4.356h3.472ZM89.5,133a2.416,2.416,0,0,0-1.252-.214h-2.4v4.356H86.9v-1.586h1.116c.38,0,.608.033.756.191a1.278,1.278,0,0,1,.17.844v.55h1.047v-.867a1.244,1.244,0,0,0-.172-.789,1.173,1.173,0,0,0-.512-.369,1.219,1.219,0,0,0,.739-1.155,1.019,1.019,0,0,0-.54-.963Zm1.134,4.142H91.7v-4.36H90.637Zm13.371,0h-1.482l-1.968-3.264v3.264H98.444l-.4-.974H95.879l-.4.974H94.266a1.842,1.842,0,0,1-2.063-2.146,2.32,2.32,0,0,1,.558-1.7,2.123,2.123,0,0,1,1.583-.512h.994v.934h-.969a1,1,0,0,0-.8.258,1.4,1.4,0,0,0-.307.986,1.488,1.488,0,0,0,.295,1.023.987.987,0,0,0,.722.222h.469l1.469-3.425h1.548l1.76,4.115v-4.115h1.587l1.831,3.032v-3.032h1.069Z" transform="translate(-62.539 -119.191)"/><path class="b" d="M106.569,20.218h-1.926a2.189,2.189,0,0,0-1.3.35v-.35H100.5a2.027,2.027,0,0,0-1.248.35v-.35H94.173v.353a2.773,2.773,0,0,0-1.407-.35H89.414v.35a2.361,2.361,0,0,0-1.455-.35H84.2l-.861.931-.8-.931H76.935v6.07h5.5l.881-.947.835.943h3.387V24.854h.337a3.648,3.648,0,0,0,1.44-.211v1.637h2.8V24.7h.138c.171,0,.183.013.183.176v1.413h8.494a2.458,2.458,0,0,0,1.418-.386v.386h2.69a3.65,3.65,0,0,0,1.526-.279V37.127H69.58V18.808h1.775l.4-.973h.9l.4.973h3.5v-.74l.313.742h1.81l.314-.753v.751h8.682V17.213h.172c.125,0,.156.015.156.2V18.8h4.491v-.376a3.508,3.508,0,0,0,1.667.378h1.89l.409-.973h.894l.4.973h3.631v-.921l.559.921h2.917V12.736h-2.893v.716l-.414-.716H98.586v.716l-.365-.716h-4a3.589,3.589,0,0,0-1.74.349v-.349H89.716v.349a1.759,1.759,0,0,0-1.178-.349H78.451L77.769,14.3l-.691-1.564H73.906v.716l-.358-.716H70.833L69.58,15.613V0h36.989V20.218" transform="translate(-62.458)"/></svg>