<svg xmlns="http://www.w3.org/2000/svg" width="70.3" height="70" viewBox="0 0 70.3 70"><defs><style>.a{fill:#fff;}</style></defs><g transform="translate(-662.19 -572.666)"><path class="a" d="M720.972,694.814l9.835-55.315c9.375,0,12.332,1.028,12.759,5.224,0,0,6.289-2.345,9.461-7.107a69.5,69.5,0,0,0-24.814-5.994l-7.257,8.839h.016l-7.257-8.839a69.494,69.494,0,0,0-24.813,5.995c3.169,4.762,9.461,7.107,9.461,7.107.429-4.2,3.383-5.224,12.695-5.231Z" transform="translate(-23.628 -52.148)"/><path class="a" d="M697.34,576.922a81.063,81.063,0,0,1,33.18,6.654,26.948,26.948,0,0,0,1.97-4.065,93.665,93.665,0,0,0-70.3,0,33.99,33.99,0,0,0,1.968,4.065,81.056,81.056,0,0,1,33.18-6.654Z" transform="translate(0 0)"/></g></svg>