<svg xmlns="http://www.w3.org/2000/svg" xmlns:xlink="http://www.w3.org/1999/xlink" width="299.534" height="210.281" viewBox="0 0 299.534 210.281"><defs><style>.a,.b{fill:url(#a);}.b{opacity:0.198;}.c{clip-path:url(#c);}.d{opacity:0.3;clip-path:url(#d);}.e{opacity:0.4;}.f{opacity:0.8;}.g{fill:none;stroke:#f04d4d;opacity:0.354;isolation:isolate;}</style><linearGradient id="a" x1="0.5" x2="0.5" y2="1" gradientUnits="objectBoundingBox"><stop offset="0" stop-color="#f04d4d"/><stop offset="1" stop-color="#fcfcfc"/></linearGradient><clipPath id="c"><path class="a" d="M296.126,0H2.373A2.588,2.588,0,0,0,0,2.76V207.521a2.588,2.588,0,0,0,2.373,2.76H296.126a2.588,2.588,0,0,0,2.373-2.76V2.76A2.588,2.588,0,0,0,296.126,0Z" transform="translate(0)"/></clipPath><clipPath id="d"><path class="b" d="M97.332,29.007l43.757,42.687L155.033,53l25.485,30.229,27.408.782L238.22,110.2l13.464-16.373,29.812,2.5,18.272-16.892,36.544,33.19,19.234-16.3,49.527,44.149,14.906-16.393,15.868,18.08h15.82l17.839,14.706v138.24L97.332,291.144Z" transform="translate(-97.332 -29.007)"/></clipPath></defs><g transform="translate(0.349)"><g class="c" transform="translate(0.365)"><g transform="translate(-19.596 31.959)"><g transform="translate(0 0)"><g class="d"><path class="a" d="M369.215,0H2.958C1.325,0,0,2.17,0,4.846v359.6c0,2.677,1.325,4.846,2.958,4.846H369.215c1.634,0,2.958-2.17,2.958-4.846V4.846C372.173,2.17,370.849,0,369.215,0Z" transform="translate(0 -109.342)"/></g></g></g></g><path class="g" d="M120.093,350.12l24.375,23.768,13.951-18.7,25.5,30.226,27.421.781,30.307,26.2,13.47-16.373,29.826,2.5,18.281-16.892,36.562,33.19,19.243-16.3,49.55,44.148,10.332-11.492" transform="translate(-120.093 -301.533)"/></g></svg>