<svg xmlns="http://www.w3.org/2000/svg" width="72.875" height="73.797" viewBox="0 0 72.875 73.797"><defs><style>.a{fill:#063397;}.b{fill:#fecb17;}.c{fill:#fff;}.d{fill:#b12233;}.e{fill:#3c3b6d;}</style></defs><g transform="translate(-165 -168)"><g transform="translate(165 168)"><g transform="translate(0 0)"><path class="a" d="M39.337,126.519a25.388,25.388,0,1,1,25.388-25.388A25.419,25.419,0,0,1,39.337,126.519Z" transform="translate(-13.949 -75.743)"/></g><g transform="translate(8.354 8.458)"><g transform="translate(7.347 1.976)"><g transform="translate(0 25.477)"><path class="b" d="M17.378,78.251l.551,1.694h1.781l-1.442,1.047.551,1.7-1.442-1.048-1.442,1.048.551-1.7-1.442-1.047h1.783Z" transform="translate(-15.045 -78.251)"/><path class="b" d="M18.4,78.251l.551,1.694h1.781L19.3,80.992l.551,1.7L18.4,81.639l-1.44,1.048.55-1.7-1.441-1.047h1.781Z" transform="translate(-1.355 -78.251)"/></g><path class="b" d="M17.378,76.472l.551,1.694h1.781l-1.442,1.047.551,1.7L17.378,79.86l-1.442,1.048.551-1.7-1.442-1.047h1.783Z" transform="translate(-15.045 -76.472)"/><path class="b" d="M18.4,76.472l.551,1.694h1.781L19.3,79.212l.551,1.7L18.4,79.86l-1.44,1.048.55-1.7-1.441-1.047h1.781Z" transform="translate(-1.355 -76.472)"/></g><g transform="translate(1.965 7.356)"><path class="b" d="M18.782,76.847l.55,1.694h1.781L19.673,79.59l.55,1.694-1.441-1.047L17.34,81.284l.551-1.694-1.442-1.048h1.781Z" transform="translate(9.034 -76.847)"/><path class="b" d="M17,76.847l.551,1.694h1.781L17.893,79.59l.55,1.694L17,80.237,15.56,81.284l.55-1.694-1.44-1.048h1.781Z" transform="translate(-14.67 -76.847)"/><g transform="translate(0 14.716)"><path class="b" d="M18.782,77.875l.55,1.7h1.781l-1.441,1.047.55,1.694-1.441-1.047L17.34,82.311l.551-1.694-1.442-1.047h1.781Z" transform="translate(9.034 -77.875)"/><path class="b" d="M17,77.875l.551,1.7h1.781l-1.441,1.047.55,1.694L17,81.265,15.56,82.311l.55-1.694-1.44-1.047h1.781Z" transform="translate(-14.67 -77.875)"/></g></g><g transform="translate(14.699)"><path class="b" d="M17.892,76.334l.55,1.694h1.783l-1.442,1.047.55,1.7-1.441-1.048L16.45,80.77l.551-1.7-1.442-1.047H17.34Z" transform="translate(-15.559 -76.334)"/><path class="b" d="M17.892,78.389l.55,1.694h1.783L18.782,81.13l.55,1.7-1.441-1.048L16.45,82.825,17,81.13l-1.442-1.047H17.34Z" transform="translate(-15.559 -48.96)"/></g><g transform="translate(0 14.704)"><path class="b" d="M18.919,77.361l.55,1.694H21.25L19.81,80.1l.55,1.7-1.441-1.048L17.477,81.8l.551-1.7-1.442-1.047h1.781Z" transform="translate(12.826 -77.361)"/><path class="b" d="M16.864,77.361l.551,1.694H19.2L17.756,80.1l.55,1.7-1.442-1.048L15.423,81.8l.55-1.7-1.441-1.047h1.781Z" transform="translate(-14.532 -77.361)"/></g></g></g><g transform="translate(187.452 191.472)"><g transform="translate(0 0)"><path class="c" d="M153.2,19.319a24.428,24.428,0,0,1-2.034,3.872H108.688a24.8,24.8,0,0,1-2.033-3.872Z" transform="translate(-104.714 15.52)"/><path class="d" d="M155.437,18.449a24.287,24.287,0,0,1-1.266,3.872H107.633a24.712,24.712,0,0,1-1.262-3.872Z" transform="translate(-105.69 12.519)"/><path class="c" d="M156.511,17.579a25.674,25.674,0,0,1-.606,3.872H106.841a24.592,24.592,0,0,1-.606-3.872Z" transform="translate(-106.159 9.517)"/><path class="d" d="M149.594,20.189a25.2,25.2,0,0,1-3.06,3.872h-36.36a25.5,25.5,0,0,1-3.064-3.872Z" transform="translate(-103.141 18.522)"/><path class="d" d="M135.75,21.929a25.277,25.277,0,0,1-26.887,0Z" transform="translate(-97.093 24.525)"/><path class="c" d="M144.172,21.059a25.362,25.362,0,0,1-4.756,3.872H112.554a25.361,25.361,0,0,1-4.757-3.872Z" transform="translate(-100.77 21.523)"/><path class="c" d="M144.172,16.232H107.8a25.362,25.362,0,0,1,4.757-3.872h26.857A25.389,25.389,0,0,1,144.172,16.232Z" transform="translate(-100.77 -8.488)"/><path class="d" d="M135.746,15.362H108.863a25.645,25.645,0,0,1,2.5-1.384l.241-.111c.29-.138.585-.267.884-.4.13-.053.264-.107.4-.16a25.21,25.21,0,0,1,9.419-1.82h0A25.146,25.146,0,0,1,135.746,15.362Z" transform="translate(-97.093 -11.49)"/><path class="d" d="M149.594,17.1H107.11c.223-.347.455-.69.7-1.023l.062-.085a24.848,24.848,0,0,1,2.306-2.763h36.36A25.416,25.416,0,0,1,149.594,17.1Z" transform="translate(-103.141 -5.487)"/><path class="d" d="M155.437,18.837H106.371a24.813,24.813,0,0,1,1.262-3.867h46.542A24.827,24.827,0,0,1,155.437,18.837Z" transform="translate(-105.69 0.516)"/><path class="c" d="M153.2,17.972H106.654c.1-.249.21-.5.326-.748.272-.592.566-1.175.883-1.744.263-.472.54-.93.825-1.38h42.476A25.014,25.014,0,0,1,153.2,17.972Z" transform="translate(-104.714 -2.485)"/><path class="c" d="M156.511,19.715H106.235c.013-.165.027-.325.045-.481.045-.472.1-.943.174-1.411.1-.668.232-1.331.388-1.985h49.064A25.822,25.822,0,0,1,156.511,19.715Z" transform="translate(-106.159 3.514)"/><path class="d" d="M156.641,18.641c0,.654-.027,1.3-.071,1.936H106.294c-.049-.636-.076-1.282-.076-1.936s.027-1.295.076-1.931H156.57C156.615,17.346,156.641,17.992,156.641,18.641Z" transform="translate(-106.218 6.519)"/><path class="e" d="M131.378,11.49v27.1H106.294c-.049-.636-.076-1.282-.076-1.936s.027-1.295.076-1.931c.013-.165.027-.325.045-.481.045-.472.1-.943.174-1.411.1-.668.231-1.331.387-1.985a24.851,24.851,0,0,1,1.259-3.867c.1-.249.209-.5.325-.748.271-.592.565-1.175.881-1.744.262-.472.538-.93.823-1.379.223-.347.454-.69.694-1.024l.062-.085a24.834,24.834,0,0,1,2.3-2.763,25.415,25.415,0,0,1,7.231-5.255l.24-.111c.289-.138.583-.267.881-.4.129-.053.263-.107.4-.16A25.038,25.038,0,0,1,131.378,11.49Z" transform="translate(-106.218 -11.49)"/><g transform="translate(0.12 1.29)"><g transform="translate(14.138)"><path class="c" d="M112.319,11.78l.354,1.089h1.145l-.926.673.354,1.089-.926-.673-.927.673.354-1.089-.926-.673h1.145Z" transform="translate(-104.6 -11.78)"/><path class="c" d="M111.611,13.95l.085.271-.369-.271-.556-.4-.556.4-.369.271.085-.271.267-.819-.774-.565.24-.111h.752l.129-.4c.129-.053.263-.107.4-.16l.182.556h1.144l-.921.676Z" transform="translate(-109.422 -11.369)"/></g><g transform="translate(7.617 5.417)"><path class="c" d="M112.319,13l.354,1.089h1.145l-.926.673.354,1.089-.926-.673-.927.673.354-1.089-.926-.673h1.145Z" transform="translate(-98.079 -12.997)"/><path class="c" d="M110.887,13l.354,1.089h1.145l-.926.673.354,1.089-.926-.673-.926.673.354-1.089-.926-.673h1.145Z" transform="translate(-103.018 -12.997)"/><path class="c" d="M109.455,13l.354,1.089h1.145l-.926.673.354,1.089-.927-.673-.926.673.354-1.089-.926-.673H109.1Z" transform="translate(-107.957 -12.997)"/></g><g transform="translate(2.145 10.834)"><path class="c" d="M112.319,14.215l.354,1.089h1.145l-.926.673.354,1.089-.926-.673-.927.673.354-1.089-.926-.673h1.145Z" transform="translate(-92.607 -14.215)"/><path class="c" d="M110.887,14.215l.354,1.089h1.145l-.926.673.354,1.089-.926-.673-.926.673.354-1.089-.926-.673h1.145Z" transform="translate(-97.546 -14.215)"/><path class="c" d="M109.455,14.215l.354,1.089h1.145l-.926.673.354,1.089-.927-.673-.926.673.354-1.089-.926-.673H109.1Z" transform="translate(-102.485 -14.215)"/><path class="c" d="M107.9,15.3l.352,1.086-.926-.672-.6.436c.271-.592.565-1.175.881-1.744l.071.218h1.144Z" transform="translate(-106.727 -13.54)"/></g><g transform="translate(1.246 16.252)"><path class="c" d="M112.319,15.432l.354,1.089h1.145l-.926.673.354,1.089-.926-.673-.927.673.354-1.089-.926-.673h1.145Z" transform="translate(-91.708 -15.432)"/><path class="c" d="M110.887,15.432l.354,1.089h1.145l-.926.673.354,1.089-.926-.673-.926.673.354-1.089-.926-.673h1.145Z" transform="translate(-96.647 -15.432)"/><path class="c" d="M109.455,15.432l.354,1.089h1.145l-.926.673.354,1.089-.927-.673-.926.673.354-1.089-.926-.673H109.1Z" transform="translate(-101.586 -15.432)"/><path class="c" d="M108.024,15.432l.354,1.089h1.145l-.926.673.354,1.089-.926-.673-.926.673.354-1.089-.927-.673h1.145Z" transform="translate(-106.525 -15.432)"/></g><g transform="translate(1.246 21.669)"><path class="c" d="M112.319,16.649l.354,1.089h1.145l-.926.673.354,1.089-.926-.673-.927.673.354-1.089-.926-.673h1.145Z" transform="translate(-91.708 -16.649)"/><path class="c" d="M110.887,16.649l.354,1.089h1.145l-.926.673.354,1.089-.926-.673-.926.673.354-1.089-.926-.673h1.145Z" transform="translate(-96.647 -16.649)"/><path class="c" d="M109.455,16.649l.354,1.089h1.145l-.926.673.354,1.089-.927-.673-.926.673.354-1.089-.926-.673H109.1Z" transform="translate(-101.586 -16.649)"/><path class="c" d="M108.024,16.649l.354,1.089h1.145l-.926.673.354,1.089-.926-.673-.926.673.354-1.089-.927-.673h1.145Z" transform="translate(-106.525 -16.649)"/></g><g transform="translate(0 18.961)"><path class="c" d="M111.6,16.041l.354,1.089H113.1l-.926.673.354,1.089-.926-.673-.927.673.354-1.089-.926-.673h1.145Z" transform="translate(-92.932 -16.041)"/><path class="c" d="M110.171,16.041l.354,1.089h1.145l-.927.673.354,1.089-.926-.673-.927.673L109.6,17.8l-.926-.673h1.145Z" transform="translate(-97.87 -16.041)"/><path class="c" d="M108.74,16.041l.354,1.089h1.145l-.926.673.354,1.089-.926-.673-.926.673.354-1.089-.927-.673h1.145Z" transform="translate(-102.81 -16.041)"/><path class="c" d="M106.379,16.957l.352,1.09-.485-.352c.045-.472.1-.943.174-1.411h.886Z" transform="translate(-106.245 -15.198)"/></g><g transform="translate(4.431 13.543)"><path class="c" d="M111.6,14.823l.354,1.089H113.1l-.926.673.354,1.089L111.6,17l-.927.673.354-1.089-.926-.673h1.145Z" transform="translate(-97.363 -14.823)"/><path class="c" d="M110.171,14.823l.354,1.089h1.145l-.927.673.354,1.089L110.171,17l-.927.673.354-1.089-.926-.673h1.145Z" transform="translate(-102.302 -14.823)"/><path class="c" d="M108.74,14.823l.354,1.089h1.145l-.926.673.354,1.089L108.74,17l-.926.673.354-1.089-.927-.673h1.145Z" transform="translate(-107.241 -14.823)"/></g><g transform="translate(4.543 8.126)"><path class="c" d="M111.6,13.606l.354,1.089H113.1l-.926.673.354,1.089-.926-.673-.927.673.354-1.089-.926-.673h1.145Z" transform="translate(-97.475 -13.606)"/><path class="c" d="M110.171,13.606l.354,1.089h1.145l-.927.673.354,1.089-.926-.673-.927.673.354-1.089-.926-.673h1.145Z" transform="translate(-102.414 -13.606)"/><path class="c" d="M109.366,15.8l.214.65-.9-.65-.027-.022-.031.022-.9.65.214-.65.142-.436-.814-.587.062-.085h.97l.356-1.09.352,1.09h1.144l-.926.672Z" transform="translate(-107.266 -13.605)"/></g><g transform="translate(10.802 2.709)"><path class="c" d="M111.6,12.389l.354,1.089H113.1l-.926.673.354,1.089-.926-.673-.927.673.354-1.089-.926-.673h1.145Z" transform="translate(-103.733 -12.389)"/><path class="c" d="M110.171,12.389l.354,1.089h1.145l-.927.673.354,1.089-.926-.673-.927.673.354-1.089-.926-.673h1.145Z" transform="translate(-108.672 -12.389)"/></g></g></g></g></g></svg>