<svg xmlns="http://www.w3.org/2000/svg" xmlns:xlink="http://www.w3.org/1999/xlink" width="537.523" height="210.281" viewBox="0 0 537.523 210.281"><defs><style>.a{fill:#fff;}.b{fill:#e8e3d9;opacity:0.198;}.c{clip-path:url(#a);}.d{opacity:0.3;clip-path:url(#b);}.e{fill:url(#c);}.f{opacity:0.4;}.g{opacity:0.8;}.h{fill:#01405a;}.i{fill:none;stroke:#24b097;opacity:0.354;isolation:isolate;}</style><clipPath id="a"><path class="a" d="M4.266,0H532.441c2.356,0,4.266,1.236,4.266,2.76V207.521c0,1.524-1.91,2.76-4.266,2.76H4.266c-2.356,0-4.266-1.235-4.266-2.76V2.76C0,1.236,1.91,0,4.266,0Z" transform="translate(0)"/></clipPath><clipPath id="b"><path class="b" d="M766.507,29.007,687.832,71.694,662.759,53,616.937,83.227l-49.28.782L513.189,110.2,488.981,93.828l-53.6,2.5L402.524,79.431l-65.707,33.19-34.583-16.3-89.051,44.149-26.8-16.393-28.531,18.08H129.406L97.332,156.865v138.24l669.175-3.961Z" transform="translate(-97.332 -29.007)"/></clipPath><linearGradient id="c" x1="0.5" y1="0.456" x2="0.5" y2="1" gradientUnits="objectBoundingBox"><stop offset="0" stop-color="#76cde5"/><stop offset="1" stop-color="#fcfcfc"/></linearGradient></defs><g transform="translate(-991.715 -2003.969)"><g class="c" transform="translate(991.928 2003.969)"><g transform="translate(-97.233 31.959)"><g transform="translate(0 0)"><g class="d"><path class="e" d="M5.319,0H663.856a5.1,5.1,0,0,1,5.319,4.846v359.6a5.1,5.1,0,0,1-5.319,4.846H5.319A5.1,5.1,0,0,1,0,364.445V4.846A5.1,5.1,0,0,1,5.319,0Z" transform="translate(0 -109.342)"/></g><path class="h" d="M7.964,0l-.5.395L0,6.3l1,.979L7.964,1.768l6.962,5.511,1-.979L8.466.395Z" transform="translate(273.24 103.681) rotate(-90)"/></g></g></g><path class="i" d="M657.115,350.12l-43.806,23.768-25.073-18.7-45.822,30.226-49.28.781-54.468,26.2-24.207-16.373-53.6,2.5L328,381.625l-65.708,33.19-34.583-16.3-89.05,44.148-18.568-11.492" transform="translate(871.885 1702.437)"/></g></svg>