<svg xmlns="http://www.w3.org/2000/svg" width="47.768" height="37.07" viewBox="0 0 47.768 37.07"><defs><style>.a{fill:#6c6bbd;}.b{fill:#d32011;}.c{fill:#0099df;}.d{fill:#110f0d;}</style></defs><path class="a" d="M106.305,40.126H93.389V16.913h12.916Z" transform="translate(-75.963 -13.757)"/><path class="b" d="M18.246-143.47a14.738,14.738,0,0,1,5.638-11.606,14.7,14.7,0,0,0-9.123-3.156A14.762,14.762,0,0,0,0-143.47a14.762,14.762,0,0,0,14.761,14.763,14.7,14.7,0,0,0,9.123-3.156,14.738,14.738,0,0,1-5.638-11.606" transform="translate(0 158.233)"/><path class="c" d="M151.882-143.47a14.762,14.762,0,0,1-14.761,14.763A14.7,14.7,0,0,1,128-131.864a14.736,14.736,0,0,0,5.639-11.606A14.736,14.736,0,0,0,128-155.077a14.7,14.7,0,0,1,9.124-3.156,14.762,14.762,0,0,1,14.761,14.763" transform="translate(-104.114 158.233)"/><path class="d" d="M68.793-197.578a1.819,1.819,0,0,1,.607.107l-.263.8a1.381,1.381,0,0,0-.533-.1c-.557,0-.836.36-.836,1.008v2.2h-.853v-3.919h.845V-197a1.157,1.157,0,0,1,1.033-.574Zm-3.152.878H64.248v1.771c0,.393.139.656.566.656a1.572,1.572,0,0,0,.754-.221l.246.729a2,2,0,0,1-1.065.3c-1.009,0-1.361-.542-1.361-1.452V-196.7h-.8v-.779h.8v-1.189h.861v1.189h1.394v.779Zm-10.915.836a1.01,1.01,0,0,1,1.042-.952.974.974,0,0,1,.992.952Zm2.92.344a1.88,1.88,0,0,0-1.862-2.058,1.915,1.915,0,0,0-1.951,2.058,1.933,1.933,0,0,0,2.009,2.057,2.382,2.382,0,0,0,1.607-.549l-.419-.632a1.864,1.864,0,0,1-1.139.41,1.089,1.089,0,0,1-1.172-.959h2.91c.008-.107.017-.213.017-.328Zm3.747-.959a2.514,2.514,0,0,0-1.221-.337c-.467,0-.746.173-.746.46,0,.262.295.336.664.385l.4.057c.853.124,1.369.484,1.369,1.173,0,.746-.656,1.279-1.787,1.279a2.828,2.828,0,0,1-1.7-.509l.4-.665a2.09,2.09,0,0,0,1.3.41c.582,0,.894-.172.894-.476,0-.221-.221-.344-.689-.409l-.4-.057c-.878-.124-1.353-.517-1.353-1.156,0-.779.64-1.255,1.632-1.255a2.929,2.929,0,0,1,1.6.41l-.369.689Zm10.517-.289a1.292,1.292,0,0,0-.489.092,1.174,1.174,0,0,0-.39.259,1.2,1.2,0,0,0-.259.4,1.348,1.348,0,0,0-.094.512,1.345,1.345,0,0,0,.094.512,1.2,1.2,0,0,0,.259.4,1.174,1.174,0,0,0,.39.259,1.274,1.274,0,0,0,.489.092,1.271,1.271,0,0,0,.489-.092,1.172,1.172,0,0,0,.392-.259,1.194,1.194,0,0,0,.262-.4,1.345,1.345,0,0,0,.094-.512,1.348,1.348,0,0,0-.094-.512,1.193,1.193,0,0,0-.262-.4,1.172,1.172,0,0,0-.392-.259,1.289,1.289,0,0,0-.489-.092Zm0-.81a2.207,2.207,0,0,1,.845.159,2.05,2.05,0,0,1,.672.436,1.993,1.993,0,0,1,.444.655,2.086,2.086,0,0,1,.16.822,2.085,2.085,0,0,1-.16.822,2,2,0,0,1-.444.656,2.066,2.066,0,0,1-.672.435,2.225,2.225,0,0,1-.845.158,2.225,2.225,0,0,1-.845-.158,2.043,2.043,0,0,1-.669-.435,2.021,2.021,0,0,1-.442-.656,2.085,2.085,0,0,1-.16-.822,2.085,2.085,0,0,1,.16-.822,2.017,2.017,0,0,1,.442-.655,2.028,2.028,0,0,1,.669-.436,2.207,2.207,0,0,1,.845-.159ZM49.745-195.52a1.176,1.176,0,0,1,1.189-1.255,1.175,1.175,0,0,1,1.181,1.255,1.174,1.174,0,0,1-1.181,1.254,1.176,1.176,0,0,1-1.189-1.254Zm3.173,0v-1.96h-.852V-197a1.487,1.487,0,0,0-1.238-.574,1.963,1.963,0,0,0-1.96,2.058,1.964,1.964,0,0,0,1.96,2.058,1.487,1.487,0,0,0,1.238-.574v.476h.852Zm-4.8,1.96v-2.46a1.459,1.459,0,0,0-1.541-1.558,1.516,1.516,0,0,0-1.378.7,1.44,1.44,0,0,0-1.3-.7,1.3,1.3,0,0,0-1.148.582v-.483H41.9v3.919h.861v-2.173a.917.917,0,0,1,.959-1.042c.566,0,.853.369.853,1.033v2.181h.861v-2.173a.925.925,0,0,1,.959-1.042c.583,0,.862.369.862,1.033v2.181Z" transform="translate(-34.081 230.506)"/></svg>