<svg xmlns="http://www.w3.org/2000/svg" width="47.773" height="37.07" viewBox="0 0 47.773 37.07"><defs><style>.a{fill:#ff5f00;}.b{fill:#eb001b;}.c{fill:#f79e1b;}</style></defs><path d="M19.226,174.09v-2.46a1.443,1.443,0,0,0-1.558-1.558,1.618,1.618,0,0,0-1.394.7,1.434,1.434,0,0,0-1.312-.7,1.324,1.324,0,0,0-1.148.574v-.492h-.861v3.937h.861v-2.173c0-.7.369-1.025.943-1.025s.861.369.861,1.025v2.173h.861v-2.173a.907.907,0,0,1,.943-1.025c.574,0,.861.369.861,1.025v2.173Zm12.753-3.937H30.585v-1.189h-.861v1.189h-.779v.779h.779v1.8c0,.9.369,1.435,1.353,1.435a2.294,2.294,0,0,0,1.066-.287l-.246-.738a1.349,1.349,0,0,1-.738.205c-.41,0-.574-.246-.574-.656v-1.763h1.394v-.779Zm7.3-.082a1.156,1.156,0,0,0-1.025.574v-.492h-.861v3.937h.861v-2.214c0-.656.287-1.025.82-1.025a2.4,2.4,0,0,1,.533.082l.246-.82a2.708,2.708,0,0,0-.574-.041Zm-11.031.41a2.815,2.815,0,0,0-1.6-.41c-.984,0-1.64.492-1.64,1.271,0,.656.492,1.025,1.353,1.148l.41.041c.451.082.7.205.7.41,0,.287-.328.492-.9.492a2.264,2.264,0,0,1-1.312-.41l-.41.656a2.9,2.9,0,0,0,1.681.492c1.148,0,1.8-.533,1.8-1.271,0-.7-.533-1.066-1.353-1.189l-.41-.041c-.369-.041-.656-.123-.656-.369,0-.287.287-.451.738-.451a2.956,2.956,0,0,1,1.23.328l.369-.7Zm22.882-.41a1.156,1.156,0,0,0-1.025.574v-.492h-.861v3.937H50.1v-2.214c0-.656.287-1.025.82-1.025a2.4,2.4,0,0,1,.533.082l.246-.82a2.708,2.708,0,0,0-.574-.041Zm-10.99,2.05a1.97,1.97,0,0,0,2.091,2.05,2.04,2.04,0,0,0,1.394-.451l-.41-.7a1.657,1.657,0,0,1-1.025.369A1.164,1.164,0,0,1,41,172.122a1.21,1.21,0,0,1,1.189-1.271,1.657,1.657,0,0,1,1.025.369l.41-.7a2.041,2.041,0,0,0-1.394-.451,1.97,1.97,0,0,0-2.091,2.05Zm7.955,0v-1.968h-.861v.492a1.482,1.482,0,0,0-1.23-.574,2.052,2.052,0,0,0,0,4.1,1.38,1.38,0,0,0,1.23-.574v.492H48.1Zm-3.158,0a1.192,1.192,0,1,1,2.378,0,1.192,1.192,0,1,1-2.378,0Zm-10.293-2.05a2.051,2.051,0,0,0,.041,4.1,2.508,2.508,0,0,0,1.6-.533l-.41-.615a1.96,1.96,0,0,1-1.148.41,1.107,1.107,0,0,1-1.189-.943h2.912v-.328a1.812,1.812,0,0,0-1.8-2.091Zm0,.738a.959.959,0,0,1,.984.943h-2.05a1.038,1.038,0,0,1,1.066-.943Zm21.365,1.312V168.6h-.861v2.05a1.482,1.482,0,0,0-1.23-.574,2.052,2.052,0,0,0,0,4.1,1.38,1.38,0,0,0,1.23-.574v.492h.861Zm-3.158,0a1.192,1.192,0,1,1,2.378,0,1.192,1.192,0,1,1-2.378,0Zm-28.787,0v-1.968H23.2v.492a1.482,1.482,0,0,0-1.23-.574,2.052,2.052,0,0,0,0,4.1,1.38,1.38,0,0,0,1.23-.574v.492h.861Zm-3.2,0a1.192,1.192,0,1,1,2.378,0,1.192,1.192,0,1,1-2.378,0Z" transform="translate(-10.533 -137.102)"/><rect class="a" width="12.917" height="23.21" transform="translate(17.428 3.158)"/><path class="b" d="M18.248,14.763A14.8,14.8,0,0,1,23.866,3.158a14.757,14.757,0,1,0-9.1,26.368,14.672,14.672,0,0,0,9.1-3.158A14.74,14.74,0,0,1,18.248,14.763Z" transform="translate(0 0)"/><path class="c" d="M151.849,14.763a14.747,14.747,0,0,1-23.866,11.605,14.8,14.8,0,0,0,0-23.21,14.747,14.747,0,0,1,23.866,11.605Z" transform="translate(-104.076 0)"/></svg>