<svg xmlns="http://www.w3.org/2000/svg" xmlns:xlink="http://www.w3.org/1999/xlink" width="55.973" height="18.075" viewBox="0 0 55.973 18.075"><defs><style>.a{fill:none;}.b{clip-path:url(#a);}.c{fill:url(#b);}</style><clipPath id="a"><path class="a" d="M16.5.321l-4.707,11.9L9.888,2.1A2.108,2.108,0,0,0,7.8.321H.106L0,.826A19.416,19.416,0,0,1,4.462,2.314,1.942,1.942,0,0,1,5.545,3.851L9.143,17.8H13.91L21.25.321Zm6.69,0L19.449,17.8h4.523L27.712.321Zm25.93,4.722,1.372,6.564H46.738ZM48.456.321A2.052,2.052,0,0,0,46.532,1.6L39.745,17.8h4.748l.943-2.611h5.8l.553,2.611h4.182L52.316.321ZM28.942,5.777C28.914,8.3,31.19,9.7,32.9,10.545c1.76.867,2.351,1.406,2.345,2.167-.013,1.172-1.406,1.69-2.707,1.71a9.46,9.46,0,0,1-4.646-1.1l-.808,3.827a13.692,13.692,0,0,0,5.027.93c4.752,0,7.86-2.347,7.875-5.981.02-4.614-6.38-4.869-6.336-6.934.013-.626.611-1.3,1.918-1.465a8.531,8.531,0,0,1,4.458.782l.8-3.706A12.109,12.109,0,0,0,36.585,0c-4.471,0-7.617,2.384-7.643,5.777"/></clipPath><linearGradient id="b" x1="-0.689" y1="5.25" x2="-0.681" y2="5.25" gradientUnits="objectBoundingBox"><stop offset="0" stop-color="#241f5d"/><stop offset="1" stop-color="#034ea1"/></linearGradient></defs><g class="b"><rect class="c" width="55.967" height="18.075"/></g></svg>